<svg xmlns="http://www.w3.org/2000/svg" width="232.858" height="56.974" viewBox="0 0 232.858 56.974">
  <g id="Grupo_94" data-name="Grupo 94" transform="translate(-119.817 -33.255)">
    <g id="Grupo_92" data-name="Grupo 92">
      <g id="Grupo_91" data-name="Grupo 91">
        <path id="Trazado_64" data-name="Trazado 64" d="M142.439,72.136a20.951,20.951,0,0,1-7.9,1.27c-8.427,0-14.726-4.763-14.726-13.576,0-8.416,6.343-14.053,15.614-14.053a17.829,17.829,0,0,1,7.1,1.191l-.976,2.818a15.062,15.062,0,0,0-5.988-1.111c-7.009,0-11.666,4.009-11.666,11.036,0,6.59,4.214,10.758,11.444,10.758a17.093,17.093,0,0,0,6.343-1.112Z" fill="#fff"/>
        <path id="Trazado_65" data-name="Trazado 65" d="M151.4,48.358a2.222,2.222,0,0,1-2.484,2.143,2.178,2.178,0,0,1-2.351-2.143,2.261,2.261,0,0,1,2.44-2.184A2.224,2.224,0,0,1,151.4,48.358ZM147.054,72.97V53.756h3.9V72.97Z" fill="#fff"/>
        <path id="Trazado_66" data-name="Trazado 66" d="M176.863,63.2c0,7.106-5.545,10.2-10.69,10.2-5.767,0-10.291-3.811-10.291-9.884,0-6.392,4.746-10.163,10.646-10.163C172.693,53.359,176.863,57.369,176.863,63.2Zm-16.989.2c0,4.208,2.661,7.383,6.476,7.383,3.726,0,6.52-3.136,6.52-7.463,0-3.255-1.818-7.344-6.431-7.344C161.87,55.979,159.874,59.79,159.874,63.4Z" fill="#fff"/>
        <path id="Trazado_67" data-name="Trazado 67" d="M181.788,58.957c0-2.025-.089-3.613-.178-5.2h3.416l.177,3.136h.134a7.57,7.57,0,0,1,6.786-3.533,6.319,6.319,0,0,1,6.033,3.851h.088a7.919,7.919,0,0,1,2.44-2.5,7.774,7.774,0,0,1,4.7-1.35c2.883,0,7.1,1.667,7.1,8.337V72.97h-3.815V62.132c0-3.731-1.552-5.915-4.658-5.915a5.084,5.084,0,0,0-4.657,3.136,5.414,5.414,0,0,0-.31,1.747V72.97h-3.815V61.458c0-3.057-1.508-5.241-4.479-5.241a5.281,5.281,0,0,0-4.836,3.494,4.223,4.223,0,0,0-.311,1.707V72.97h-3.814Z" fill="#fff"/>
        <path id="Trazado_68" data-name="Trazado 68" d="M218.784,60.028c0-2.461-.088-4.446-.178-6.272h3.461l.222,3.295h.088c1.553-2.342,4.125-3.692,7.629-3.692,5.234,0,9.137,3.93,9.137,9.726,0,6.908-4.746,10.321-9.8,10.321a7.817,7.817,0,0,1-6.609-3.016h-.088V80.83h-3.86Zm3.86,5.121a4.906,4.906,0,0,0,.176,1.43,5.94,5.94,0,0,0,5.856,4.088c4.125,0,6.52-3.017,6.52-7.423,0-3.811-2.262-7.106-6.387-7.106a6.038,6.038,0,0,0-5.9,4.288,5.118,5.118,0,0,0-.265,1.389Z" fill="#fff"/>
        <path id="Trazado_69" data-name="Trazado 69" d="M244.025,59.75c0-2.262-.045-4.207-.178-5.994h3.416l.177,3.811h.133a6.417,6.417,0,0,1,5.989-4.208,8.788,8.788,0,0,1,1.064.08v3.3a6.724,6.724,0,0,0-1.331-.08,5.225,5.225,0,0,0-5.234,4.446,9.352,9.352,0,0,0-.134,1.628V72.97h-3.9Z" fill="#fff"/>
        <path id="Trazado_70" data-name="Trazado 70" d="M263.054,48.358A2.222,2.222,0,0,1,260.57,50.5a2.177,2.177,0,0,1-2.35-2.143,2.26,2.26,0,0,1,2.44-2.184A2.223,2.223,0,0,1,263.054,48.358ZM258.707,72.97V53.756h3.9V72.97Z" fill="#fff"/>
        <path id="Trazado_71" data-name="Trazado 71" d="M270.906,53.756l3.06,4.129c.844,1.072,1.509,2.024,2.218,3.1h.089c.71-1.111,1.42-2.1,2.174-3.136l2.972-4.089h4.258l-7.319,9.29,7.5,9.924h-4.391l-3.194-4.327c-.843-1.112-1.552-2.184-2.306-3.335h-.088c-.71,1.151-1.42,2.184-2.264,3.335l-3.1,4.327h-4.3l7.629-9.806-7.274-9.408Z" fill="#fff"/>
      </g>
    </g>
    <g id="Grupo_93" data-name="Grupo 93">
      <path id="Trazado_72" data-name="Trazado 72" d="M329.662,61.552c0-3.965-3.516-7.191-7.838-7.191s-7.837,3.226-7.837,7.191,3.515,7.191,7.837,7.191S329.662,65.517,329.662,61.552Z" fill="#fff"/>
      <path id="Trazado_73" data-name="Trazado 73" d="M322.473,49.634a7.883,7.883,0,0,0,1.513,2.4,9.072,9.072,0,0,0,2.042,1.584,6.225,6.225,0,0,0,1.119.587c.129.05.252.092.375.133a4.568,4.568,0,0,1,.816.342s.178.1.354.219a7.2,7.2,0,0,1,2.037,3.3,11.457,11.457,0,0,1,.33,1.521c.106.666.191,1.191.786,1.486a1.7,1.7,0,0,0,.761.167,2.375,2.375,0,0,0,1.506-.555c.642-.57.629-1.339.612-2.4l0-.155c-.032-2.005-.048-2.921-.069-3.15,0-.022-.211-2.24-.174-5.013.03-2.215.211-3.044.806-3.695a3.9,3.9,0,0,1,1.252-.885,7.1,7.1,0,0,1,2.731-.381c.239-.008.324-.007.631-.005.272,0,.712.005,1.565.005l1.277,0c.292,0,.392,0,.645,0a12.275,12.275,0,0,1,2.612.213,3.968,3.968,0,0,1,1.828.729c.634.563.728,1.393.853,2.933.048.609.045,1.108.044,1.508,0,.876-.008,1.51.585,2.033a2.108,2.108,0,0,0,1.929.475c1.636-.556,1.712-3.888,1.045-6.032a6.852,6.852,0,0,0-2.617-3.821,8.69,8.69,0,0,0-2.5-1.088l-.1-.031a14.839,14.839,0,0,0-2.739-.55,22.327,22.327,0,0,0-2.356-.144c-.864-.02-1.724-.008-2.55.038-.623.035-1.177.084-1.452.115a9.628,9.628,0,0,0-4.765,1.585c-1.5,1.219-1.775,3.045-2.1,5.16-.1.618-.133,1.161-.168,1.64-.065.908-.115,1.427-.374,1.537s-.692-.047-1.547-.411a5.68,5.68,0,0,1-1.957-1.142,5.063,5.063,0,0,1-1.169-3.306,21.721,21.721,0,0,1,.013-2.628,28.123,28.123,0,0,1,.2-3.591c.235-1.457.342-2.122.842-2.57a4.645,4.645,0,0,1,2.751-.824,16.67,16.67,0,0,1,2.38-.023,2.451,2.451,0,0,0,1.864-.377l.094-.087a1.826,1.826,0,0,0,.192-2.225c-.331-.474-.869-.631-1.809-.772a11.907,11.907,0,0,0-3.944-.092,8.418,8.418,0,0,0-3.16.968,5.772,5.772,0,0,0-2.063,1.835,7.341,7.341,0,0,0-.837,1.941,11.364,11.364,0,0,0-.288,1.2c-.012.063-.1.542-.151,1.106a37.288,37.288,0,0,0-.054,4.342C322.034,47.32,322.1,48.724,322.473,49.634Z" fill="#fff"/>
      <path id="Trazado_74" data-name="Trazado 74" d="M351.406,65.112a5.7,5.7,0,0,0-2.016-1.877,8.858,8.858,0,0,0-2.106-.748c-.227-.057-.7-.166-1.309-.259-.078-.011-.59-.087-1.2-.131-2.033-.148-4.632-.04-4.742-.036-2.99.127-4.351.2-5.292.52a8.965,8.965,0,0,0-2.607,1.379,8.738,8.738,0,0,0-1.732,1.87,5.37,5.37,0,0,0-.646,1.035c-.055.119-.1.231-.146.344a3.691,3.691,0,0,1-.367.735c0,.006-.106.161-.235.319-.989,1.213-3.608,1.874-3.634,1.88a14.928,14.928,0,0,1-1.681.308c-.736.1-1.267.173-1.588.715a1.845,1.845,0,0,0,.439,2.174c.608.565,1.433.552,2.572.533l.1,0c2.244-.036,3.269-.053,3.518-.074.024,0,2.449-.2,5.508-.174,2.458.02,3.38.186,4.113.74a3.631,3.631,0,0,1,.967,1.128,5.407,5.407,0,0,1,.416,2.449c.009.216.009.292.007.568,0,.248-.005.65,0,1.432l.008,1.156c0,.27.005.36,0,.593a9.38,9.38,0,0,1-.22,2.356,3.269,3.269,0,0,1-.78,1.644c-.629.594-1.552.684-3.266.8-.675.047-1.22.045-1.663.046-.971,0-1.609,0-2.162.524a1.768,1.768,0,0,0-.525,1.857c.39.948,1.915,1.31,3.558,1.31a12.2,12.2,0,0,0,2.97-.369,7.709,7.709,0,0,0,4.153-2.39,7.483,7.483,0,0,0,1.2-2.306l.033-.091a11.8,11.8,0,0,0,.6-2.52,17.267,17.267,0,0,0,.15-2.163c.019-.785,0-1.571-.049-2.338-.041-.571-.1-1.078-.133-1.331a7.868,7.868,0,0,0-1.769-4.384c-1.329-1.352-3.316-1.6-5.616-1.882-.67-.083-1.269-.117-1.788-.147-.861-.049-1.6-.091-1.734-.341-.106-.205.127-.693.447-1.321a5.018,5.018,0,0,1,1.237-1.778,6.336,6.336,0,0,1,3.669-1.093,28.578,28.578,0,0,1,2.9,0,36.879,36.879,0,0,1,3.952.168c1.57.206,2.359.309,2.864.776a3.668,3.668,0,0,1,.893,2.457,12.454,12.454,0,0,1,.033,2.153,2.04,2.04,0,0,0,.436,1.765l.1.088a2.174,2.174,0,0,0,2.319.165c.521-.305.7-.828.852-1.692a9.151,9.151,0,0,0,.088-3.632A6.846,6.846,0,0,0,351.406,65.112Z" fill="#fff"/>
      <path id="Trazado_75" data-name="Trazado 75" d="M291.9,58.194a5.671,5.671,0,0,0,1.99,1.9,8.814,8.814,0,0,0,2.1.771c.227.06.7.175,1.3.273.067.011.585.094,1.2.146,1.042.088,2.235.11,3.164.11.881,0,1.525-.02,1.578-.022a22.609,22.609,0,0,0,5.3-.46,9.165,9.165,0,0,0,2.625-1.349,8.752,8.752,0,0,0,1.756-1.852,5.5,5.5,0,0,0,.66-1.026c.057-.119.1-.232.151-.346a3.671,3.671,0,0,1,.376-.727c0-.007.109-.161.24-.318,1.006-1.2,3.632-1.833,3.658-1.839a14.718,14.718,0,0,1,1.686-.289c.737-.093,1.27-.16,1.6-.7a1.842,1.842,0,0,0-.41-2.179c-.6-.573-1.375-.564-2.566-.563-2.307.012-3.359.017-3.612.035-.024,0-2.471.173-5.509.113-2.458-.048-3.379-.224-4.1-.786a3.6,3.6,0,0,1-.953-1.138,5.368,5.368,0,0,1-.382-2.454c-.007-.215-.005-.291,0-.567.005-.247.013-.649.021-1.432l.007-1.173c0-.257,0-.348.01-.576a9.389,9.389,0,0,1,.252-2.353,3.275,3.275,0,0,1,.8-1.636c.637-.586,1.562-.666,3.276-.767.677-.039,1.218-.033,1.663-.027.97.013,1.608.021,2.17-.5a1.775,1.775,0,0,0,.55-1.851c-.614-1.546-4.243-1.582-6.516-1.014a7.735,7.735,0,0,0-4.185,2.343,7.756,7.756,0,0,0-1.261,2.382,11.856,11.856,0,0,0-.634,2.514A17.165,17.165,0,0,0,299.719,43c-.031.787-.025,1.6.018,2.338.032.571.082,1.079.113,1.333a7.864,7.864,0,0,0,1.711,4.4c1.312,1.366,3.3,1.634,5.592,1.945.669.09,1.267.131,1.785.166.86.059,1.6.11,1.729.361.1.205-.136.691-.462,1.312a5.065,5.065,0,0,1-1.264,1.768,6.352,6.352,0,0,1-3.683,1.052,28.5,28.5,0,0,1-2.9-.036,37.071,37.071,0,0,1-3.95-.211c-1.568-.224-2.354-.336-2.852-.808a3.658,3.658,0,0,1-.86-2.466,12.726,12.726,0,0,1-.005-2.148,2.033,2.033,0,0,0-.407-1.772l-.1-.094a2.182,2.182,0,0,0-2.317-.191c-.524.3-.712.821-.874,1.683a9.144,9.144,0,0,0-.138,3.628A6.829,6.829,0,0,0,291.9,58.194Z" fill="#fff"/>
      <path id="Trazado_76" data-name="Trazado 76" d="M321,74a8,8,0,0,0-1.45-2.434,9.1,9.1,0,0,0-2-1.627,6.234,6.234,0,0,0-1.1-.612c-.128-.053-.249-.1-.371-.141a4.44,4.44,0,0,1-.808-.36c-.006,0-.176-.1-.347-.226a7.143,7.143,0,0,1-1.95-3.336,11.346,11.346,0,0,1-.29-1.528c-.09-.668-.16-1.2-.748-1.5a2.2,2.2,0,0,0-2.276.338c-.657.554-.664,1.324-.674,2.389-.021,2.107-.03,3.069-.014,3.305,0,.022.152,2.247.043,5.016-.088,2.213-.289,3.039-.9,3.678a3.969,3.969,0,0,1-1.274.858,7.158,7.158,0,0,1-2.741.321c-.238,0-.323,0-.627-.008-.272-.008-.712-.021-1.57-.04l-1.273-.023c-.292,0-.392-.006-.657-.018a12.293,12.293,0,0,1-2.6-.269,3.958,3.958,0,0,1-1.807-.768c-.619-.577-.691-1.408-.775-2.95-.034-.61-.018-1.109-.006-1.509.028-.876.048-1.509-.532-2.045a2.088,2.088,0,0,0-1.917-.518c-1.65.52-1.811,3.848-1.2,6.006a6.829,6.829,0,0,0,2.519,3.878,8.655,8.655,0,0,0,2.473,1.142l.1.034a15.013,15.013,0,0,0,2.723.609,22.24,22.24,0,0,0,2.352.194c.86.04,1.719.047,2.551.018.623-.021,1.178-.059,1.458-.084a9.667,9.667,0,0,0,4.8-1.481c1.528-1.185,1.852-3,2.229-5.111.11-.616.163-1.157.21-1.634.089-.908.152-1.427.418-1.533s.691.063,1.527.442a5.662,5.662,0,0,1,1.933,1.186,5.042,5.042,0,0,1,1.082,3.329,21.418,21.418,0,0,1-.081,2.627,28.255,28.255,0,0,1-.289,3.587c-.273,1.452-.4,2.114-.91,2.552a4.663,4.663,0,0,1-2.772.765,16.467,16.467,0,0,1-2.378-.029,2.447,2.447,0,0,0-1.876.337l-.1.084a1.83,1.83,0,0,0-.248,2.219c.32.482.854.651,1.794.813a14.326,14.326,0,0,0,2.535.271,10.894,10.894,0,0,0,1.4-.093,8.463,8.463,0,0,0,3.186-.9,5.769,5.769,0,0,0,2.109-1.788,7.375,7.375,0,0,0,.887-1.922,11.653,11.653,0,0,0,.321-1.195c.013-.062.112-.537.178-1.1a37.5,37.5,0,0,0,.167-4.34C321.382,76.319,321.351,74.914,321,74Z" fill="#fff"/>
    </g>
  </g>
</svg>
