<svg xmlns="http://www.w3.org/2000/svg" width="232.858" height="56.974" viewBox="0 0 232.858 56.974">
  <g id="Grupo_59" data-name="Grupo 59" transform="translate(-2482.518 -33.255)">
    <g id="Grupo_57" data-name="Grupo 57">
      <g id="Grupo_56" data-name="Grupo 56">
        <path id="Trazado_48" data-name="Trazado 48" d="M2505.14,72.136a20.95,20.95,0,0,1-7.9,1.27c-8.427,0-14.726-4.763-14.726-13.576,0-8.416,6.343-14.053,15.614-14.053a17.837,17.837,0,0,1,7.1,1.191l-.976,2.818a15.061,15.061,0,0,0-5.988-1.111c-7.009,0-11.666,4.009-11.666,11.036,0,6.59,4.213,10.758,11.444,10.758a17.093,17.093,0,0,0,6.343-1.112Z" fill="#606060"/>
        <path id="Trazado_49" data-name="Trazado 49" d="M2514.1,48.358a2.222,2.222,0,0,1-2.484,2.143,2.177,2.177,0,0,1-2.351-2.143,2.26,2.26,0,0,1,2.439-2.184A2.224,2.224,0,0,1,2514.1,48.358Zm-4.347,24.612V53.756h3.9V72.97Z" fill="#606060"/>
        <path id="Trazado_50" data-name="Trazado 50" d="M2539.564,63.2c0,7.106-5.545,10.2-10.691,10.2-5.767,0-10.291-3.811-10.291-9.884,0-6.392,4.747-10.163,10.646-10.163C2535.393,53.359,2539.564,57.369,2539.564,63.2Zm-16.99.2c0,4.208,2.662,7.383,6.477,7.383,3.725,0,6.52-3.136,6.52-7.463,0-3.255-1.818-7.344-6.432-7.344C2524.57,55.979,2522.574,59.79,2522.574,63.4Z" fill="#606060"/>
        <path id="Trazado_51" data-name="Trazado 51" d="M2544.488,58.957c0-2.025-.088-3.613-.177-5.2h3.415l.178,3.136h.133a7.573,7.573,0,0,1,6.787-3.533,6.319,6.319,0,0,1,6.033,3.851h.088a7.909,7.909,0,0,1,2.44-2.5,7.772,7.772,0,0,1,4.7-1.35c2.883,0,7.1,1.667,7.1,8.337V72.97h-3.814V62.132c0-3.731-1.553-5.915-4.658-5.915a5.084,5.084,0,0,0-4.657,3.136,5.414,5.414,0,0,0-.311,1.747V72.97h-3.814V61.458c0-3.057-1.509-5.241-4.48-5.241a5.281,5.281,0,0,0-4.835,3.494,4.208,4.208,0,0,0-.311,1.707V72.97h-3.815Z" fill="#606060"/>
        <path id="Trazado_52" data-name="Trazado 52" d="M2581.485,60.028c0-2.461-.089-4.446-.178-6.272h3.461l.221,3.295h.088c1.554-2.342,4.126-3.692,7.63-3.692,5.234,0,9.137,3.93,9.137,9.726,0,6.908-4.746,10.321-9.8,10.321a7.821,7.821,0,0,1-6.61-3.016h-.088V80.83h-3.859Zm3.859,5.121a4.871,4.871,0,0,0,.177,1.43,5.94,5.94,0,0,0,5.856,4.088c4.124,0,6.52-3.017,6.52-7.423,0-3.811-2.262-7.106-6.388-7.106a6.038,6.038,0,0,0-5.9,4.288,5.118,5.118,0,0,0-.266,1.389Z" fill="#606060"/>
        <path id="Trazado_53" data-name="Trazado 53" d="M2606.725,59.75c0-2.262-.044-4.207-.177-5.994h3.415l.178,3.811h.133a6.417,6.417,0,0,1,5.989-4.208,8.8,8.8,0,0,1,1.064.08v3.3a6.732,6.732,0,0,0-1.331-.08,5.226,5.226,0,0,0-5.235,4.446,9.465,9.465,0,0,0-.133,1.628V72.97h-3.9Z" fill="#606060"/>
        <path id="Trazado_54" data-name="Trazado 54" d="M2625.755,48.358a2.222,2.222,0,0,1-2.484,2.143,2.178,2.178,0,0,1-2.351-2.143,2.26,2.26,0,0,1,2.44-2.184A2.223,2.223,0,0,1,2625.755,48.358Zm-4.347,24.612V53.756h3.9V72.97Z" fill="#606060"/>
        <path id="Trazado_55" data-name="Trazado 55" d="M2633.607,53.756l3.06,4.129c.843,1.072,1.508,2.024,2.218,3.1h.088c.71-1.111,1.42-2.1,2.174-3.136l2.973-4.089h4.257l-7.319,9.29,7.5,9.924h-4.391l-3.194-4.327c-.843-1.112-1.552-2.184-2.307-3.335h-.088c-.71,1.151-1.42,2.184-2.263,3.335l-3.1,4.327h-4.3l7.629-9.806-7.275-9.408Z" fill="#606060"/>
      </g>
    </g>
    <g id="Grupo_58" data-name="Grupo 58">
      <path id="Trazado_56" data-name="Trazado 56" d="M2692.363,61.552c0-3.965-3.516-7.191-7.838-7.191s-7.837,3.226-7.837,7.191,3.515,7.191,7.837,7.191S2692.363,65.517,2692.363,61.552Z" fill="#606060"/>
      <path id="Trazado_57" data-name="Trazado 57" d="M2685.173,49.634a7.917,7.917,0,0,0,1.513,2.4,9.1,9.1,0,0,0,2.043,1.584,6.222,6.222,0,0,0,1.119.587c.128.05.252.092.374.133a4.545,4.545,0,0,1,.817.342s.178.1.354.219a7.2,7.2,0,0,1,2.037,3.3,11.43,11.43,0,0,1,.329,1.521c.107.666.191,1.191.787,1.486a1.7,1.7,0,0,0,.76.167,2.378,2.378,0,0,0,1.507-.555c.642-.57.629-1.339.611-2.4l0-.155c-.033-2.005-.048-2.921-.07-3.15,0-.022-.21-2.24-.174-5.013.03-2.215.211-3.044.807-3.695a3.9,3.9,0,0,1,1.251-.885,7.11,7.11,0,0,1,2.732-.381c.239-.008.323-.007.631-.005.272,0,.711.005,1.564.005l1.278,0c.292,0,.392,0,.644,0a12.284,12.284,0,0,1,2.613.213,3.972,3.972,0,0,1,1.828.729c.633.563.728,1.393.852,2.933.049.609.046,1.108.044,1.508,0,.876-.008,1.51.586,2.033a2.107,2.107,0,0,0,1.929.475c1.636-.556,1.712-3.888,1.045-6.032a6.857,6.857,0,0,0-2.617-3.821,8.691,8.691,0,0,0-2.5-1.088l-.1-.031a14.851,14.851,0,0,0-2.739-.55,22.328,22.328,0,0,0-2.357-.144c-.864-.02-1.723-.008-2.549.038-.623.035-1.177.084-1.453.115a9.632,9.632,0,0,0-4.765,1.585c-1.5,1.219-1.775,3.045-2.1,5.16-.095.618-.134,1.161-.168,1.64-.066.908-.115,1.427-.375,1.537s-.692-.047-1.547-.411a5.674,5.674,0,0,1-1.956-1.142,5.063,5.063,0,0,1-1.169-3.306,21.438,21.438,0,0,1,.013-2.628,28.285,28.285,0,0,1,.194-3.591c.235-1.457.343-2.122.843-2.57a4.644,4.644,0,0,1,2.75-.824,16.662,16.662,0,0,1,2.38-.023,2.452,2.452,0,0,0,1.865-.377l.094-.087a1.826,1.826,0,0,0,.192-2.225c-.332-.474-.869-.631-1.809-.772a11.909,11.909,0,0,0-3.944-.092,8.428,8.428,0,0,0-3.161.968,5.77,5.77,0,0,0-2.062,1.835,7.273,7.273,0,0,0-.837,1.941,11.089,11.089,0,0,0-.288,1.2c-.012.063-.1.542-.152,1.106a37.408,37.408,0,0,0-.053,4.342C2684.735,47.32,2684.8,48.724,2685.173,49.634Z" fill="#606060"/>
      <path id="Trazado_58" data-name="Trazado 58" d="M2714.106,65.112a5.69,5.69,0,0,0-2.015-1.877,8.851,8.851,0,0,0-2.107-.748c-.227-.057-.7-.166-1.309-.259-.077-.011-.59-.087-1.194-.131-2.034-.148-4.632-.04-4.743-.036-2.989.127-4.35.2-5.291.52a8.965,8.965,0,0,0-2.607,1.379,8.714,8.714,0,0,0-1.732,1.87,5.444,5.444,0,0,0-.647,1.035c-.055.119-.1.231-.146.344a3.674,3.674,0,0,1-.366.735c0,.006-.107.161-.236.319-.989,1.213-3.607,1.874-3.633,1.88a14.925,14.925,0,0,1-1.681.308c-.736.1-1.268.173-1.589.715a1.847,1.847,0,0,0,.44,2.174c.607.565,1.433.552,2.571.533l.1,0c2.244-.036,3.268-.053,3.518-.074.023,0,2.449-.2,5.507-.174,2.458.02,3.381.186,4.113.74a3.621,3.621,0,0,1,.968,1.128,5.394,5.394,0,0,1,.415,2.449c.009.216.009.292.007.568,0,.248,0,.65,0,1.432l.008,1.156c0,.27,0,.36,0,.593a9.383,9.383,0,0,1-.22,2.356,3.277,3.277,0,0,1-.78,1.644c-.629.594-1.552.684-3.266.8-.676.047-1.221.045-1.663.046-.971,0-1.609,0-2.162.524a1.771,1.771,0,0,0-.526,1.857c.39.948,1.916,1.31,3.559,1.31a12.209,12.209,0,0,0,2.97-.369,7.712,7.712,0,0,0,4.153-2.39,7.476,7.476,0,0,0,1.2-2.306l.034-.091a11.853,11.853,0,0,0,.6-2.52,17.444,17.444,0,0,0,.149-2.163c.02-.785,0-1.571-.048-2.338-.041-.571-.1-1.078-.133-1.331a7.884,7.884,0,0,0-1.769-4.384c-1.329-1.352-3.317-1.6-5.617-1.882-.669-.083-1.268-.117-1.787-.147-.862-.049-1.6-.091-1.735-.341-.1-.205.127-.693.447-1.321a5.028,5.028,0,0,1,1.237-1.778,6.339,6.339,0,0,1,3.67-1.093,28.549,28.549,0,0,1,2.9,0,36.884,36.884,0,0,1,3.953.168c1.57.206,2.358.309,2.864.776a3.673,3.673,0,0,1,.893,2.457,12.418,12.418,0,0,1,.033,2.153,2.039,2.039,0,0,0,.435,1.765l.1.088a2.175,2.175,0,0,0,2.319.165c.521-.305.7-.828.853-1.692a9.153,9.153,0,0,0,.088-3.632A6.835,6.835,0,0,0,2714.106,65.112Z" fill="#606060"/>
      <path id="Trazado_59" data-name="Trazado 59" d="M2654.6,58.194a5.663,5.663,0,0,0,1.99,1.9,8.794,8.794,0,0,0,2.1.771c.227.06.7.175,1.3.273.068.011.586.094,1.2.146,1.042.088,2.235.11,3.164.11.881,0,1.524-.02,1.577-.022a22.614,22.614,0,0,0,5.3-.46,9.178,9.178,0,0,0,2.625-1.349,8.755,8.755,0,0,0,1.756-1.852,5.506,5.506,0,0,0,.66-1.026c.056-.119.1-.232.151-.346a3.612,3.612,0,0,1,.376-.727c0-.007.109-.161.24-.318,1.006-1.2,3.632-1.833,3.658-1.839a14.675,14.675,0,0,1,1.686-.289c.737-.093,1.27-.16,1.6-.7a1.842,1.842,0,0,0-.41-2.179c-.6-.573-1.376-.564-2.567-.563-2.306.012-3.358.017-3.612.035-.024,0-2.47.173-5.509.113-2.458-.048-3.378-.224-4.1-.786a3.572,3.572,0,0,1-.952-1.138,5.354,5.354,0,0,1-.382-2.454c-.007-.215-.005-.291,0-.567,0-.247.013-.649.021-1.432l.007-1.173c0-.257,0-.348.01-.576a9.4,9.4,0,0,1,.252-2.353,3.269,3.269,0,0,1,.8-1.636c.637-.586,1.561-.666,3.276-.767.676-.039,1.218-.033,1.663-.027.97.013,1.608.021,2.169-.5a1.775,1.775,0,0,0,.551-1.851c-.615-1.546-4.244-1.582-6.517-1.014a7.739,7.739,0,0,0-4.185,2.343,7.757,7.757,0,0,0-1.26,2.382,11.792,11.792,0,0,0-.634,2.514,17.132,17.132,0,0,0-.18,2.161c-.03.787-.024,1.6.018,2.338.033.571.082,1.079.114,1.333a7.865,7.865,0,0,0,1.711,4.4c1.312,1.366,3.295,1.634,5.592,1.945.668.09,1.267.131,1.785.166.86.059,1.6.11,1.729.361.1.205-.136.691-.463,1.312a5.042,5.042,0,0,1-1.264,1.768,6.351,6.351,0,0,1-3.683,1.052,28.483,28.483,0,0,1-2.9-.036,37.1,37.1,0,0,1-3.951-.211c-1.567-.224-2.354-.336-2.851-.808a3.66,3.66,0,0,1-.861-2.466,12.479,12.479,0,0,1,0-2.148,2.033,2.033,0,0,0-.407-1.772l-.1-.094a2.182,2.182,0,0,0-2.317-.191c-.525.3-.712.821-.874,1.683a9.124,9.124,0,0,0-.138,3.628A6.814,6.814,0,0,0,2654.6,58.194Z" fill="#606060"/>
      <path id="Trazado_60" data-name="Trazado 60" d="M2683.7,74a8.022,8.022,0,0,0-1.45-2.434,9.128,9.128,0,0,0-2-1.627,6.266,6.266,0,0,0-1.1-.612c-.128-.053-.25-.1-.371-.141a4.444,4.444,0,0,1-.808-.36c-.007,0-.176-.1-.347-.226-1.3-.929-1.944-3.312-1.951-3.336a11.3,11.3,0,0,1-.289-1.528c-.09-.668-.16-1.2-.749-1.5a2.2,2.2,0,0,0-2.275.338c-.657.554-.664,1.324-.674,2.389-.021,2.107-.03,3.069-.015,3.305,0,.022.152,2.247.043,5.016-.087,2.213-.289,3.039-.9,3.678a3.982,3.982,0,0,1-1.274.858,7.162,7.162,0,0,1-2.742.321c-.238,0-.322,0-.627-.008-.271-.008-.712-.021-1.569-.04l-1.273-.023c-.292,0-.392-.006-.657-.018a12.31,12.31,0,0,1-2.6-.269,3.959,3.959,0,0,1-1.807-.768c-.618-.577-.691-1.408-.775-2.95-.033-.61-.018-1.109,0-1.509.028-.876.048-1.509-.532-2.045a2.09,2.09,0,0,0-1.918-.518c-1.649.52-1.811,3.848-1.2,6.006a6.833,6.833,0,0,0,2.519,3.878,8.68,8.68,0,0,0,2.473,1.142l.1.034a15.041,15.041,0,0,0,2.724.609,22.245,22.245,0,0,0,2.351.194c.861.04,1.719.047,2.552.018.622-.021,1.177-.059,1.458-.084a9.67,9.67,0,0,0,4.8-1.481c1.528-1.185,1.852-3,2.229-5.111.11-.616.163-1.157.21-1.634.089-.908.152-1.427.418-1.533s.691.063,1.527.442a5.658,5.658,0,0,1,1.932,1.186,5.036,5.036,0,0,1,1.083,3.329,21.875,21.875,0,0,1-.082,2.627,28.18,28.18,0,0,1-.288,3.587c-.273,1.452-.4,2.114-.91,2.552a4.663,4.663,0,0,1-2.772.765,16.474,16.474,0,0,1-2.379-.029,2.447,2.447,0,0,0-1.876.337l-.095.084a1.831,1.831,0,0,0-.249,2.219c.32.482.854.651,1.795.813a14.315,14.315,0,0,0,2.534.271,10.885,10.885,0,0,0,1.4-.093,8.463,8.463,0,0,0,3.187-.9,5.777,5.777,0,0,0,2.109-1.788,7.366,7.366,0,0,0,.887-1.922,11.67,11.67,0,0,0,.32-1.195c.014-.062.113-.537.179-1.1a37.4,37.4,0,0,0,.166-4.34C2684.082,76.319,2684.052,74.914,2683.7,74Z" fill="#606060"/>
    </g>
  </g>
</svg>
